<?xml version="1.0" encoding="utf-8"?>
<svg
    width="24"
    height="24"
    viewBox="0 0 24 24"
    fill="none"
    xmlns="http://www.w3.org/2000/svg"
    className="Hawkins-Icon Hawkins-Icon-Standard"
    >
    <path
        fillRule="evenodd"
        clipRule="evenodd"
        d="M9.97014 1C8.88206 1 8 1.88206 8 2.97014V5.76393L5.8023 10.1593L2.72528 11.0385C2.29598 11.1611 2 11.5535 2 12V19C2 19.4465 2.29598 19.8389 2.72528 19.9615L6.17609 20.9475L6.84053 21.2132C8.13985 21.733 9.52641 22 10.9258 22H16.7086C18.5124 22 20.0931 20.7927 20.5677 19.0525L21.9313 14.0525C22.6253 11.5079 20.7097 9 18.0722 9H14.2808L14.7276 7.21268C14.9267 6.41648 14.9267 5.58352 14.7276 4.78732L14.705 4.69686C14.1618 2.52419 12.2097 1 9.97014 1ZM9.78885 6.65836C9.92771 6.38065 10 6.07442 10 5.76393V3.00015C11.3093 3.01358 12.4465 3.90926 12.7647 5.18193L12.7873 5.27239C12.9068 5.75011 12.9068 6.24989 12.7873 6.72761L12.0299 9.75746L11.7192 11H13H18.0722C19.391 11 20.3488 12.254 20.0018 13.5262L18.6381 18.5262C18.4008 19.3964 17.6105 20 16.7086 20H10.9258C9.78085 20 8.64639 19.7815 7.58331 19.3563L6.87139 19.0715C6.83975 19.0589 6.80749 19.0478 6.77472 19.0385L4 18.2457V12.7543L6.35174 12.0824C6.89079 11.9284 7.34044 11.5552 7.59116 11.0538L9.78885 6.65836Z"
        fill="currentColor"
    />
</svg>