<svg
    width="24"
    height="24"
    viewBox="0 0 24 24"
    fill="none"
    xmlns="http://www.w3.org/2000/svg"
    className="thumb thumb-up-filled svg-icon svg-icon-thumb-thumb-up-filled"
    >
    <path
        d="M13.7575 5.02986L13.7348 4.93939C13.303 3.21189 11.7508 2 9.97014 2C9.43435 2 9 2.43435 9 2.97014V5.76393C9 5.91918 8.96385 6.07229 8.89443 6.21115L6.69673 10.6065C6.57137 10.8573 6.34655 11.0438 6.07702 11.1209L3.72528 11.7928C3.29598 11.9154 3 12.3078 3 12.7543V18.2457C3 18.6922 3.29598 19.0846 3.72528 19.2072L6.5 20L7.21192 20.2848C8.39312 20.7572 9.65363 21 10.9258 21H16.7086C18.0615 21 19.2469 20.0945 19.6029 18.7894L20.9665 13.7894C21.487 11.8809 20.0504 10 18.0722 10H13L13.7575 6.97014C13.9167 6.33318 13.9167 5.66682 13.7575 5.02986Z"
        fill="currentColor"
    ></path>
</svg>