<svg
    width="24"
    height="24"
    viewBox="0 0 24 24"
    fill="none"
    xmlns="http://www.w3.org/2000/svg"
    className="thumb thumb-down-filled svg-icon svg-icon-thumb-thumb-down-filled"
    >
    <path
        d="M10.2425 18.9701L10.2652 19.0606C10.697 20.7881 12.2492 22 14.0299 22C14.5657 22 15 21.5657 15 21.0299V18.2361C15 18.0808 15.0361 17.9277 15.1056 17.7889L17.3033 13.3935C17.4286 13.1427 17.6535 12.9562 17.923 12.8791L21 12V5L17.5 4L16.7881 3.71523C15.6069 3.24275 14.3464 3 13.0742 3H7.29139C5.93853 3 4.75306 3.90546 4.3971 5.21065L3.03346 10.2106C2.51298 12.1191 3.94963 14 5.92775 14H11L10.2425 17.0299C10.0833 17.6668 10.0833 18.3332 10.2425 18.9701Z"
        fill="currentColor"
    ></path>
</svg>