 <?xml version="1.0" encoding="utf-8"?>
 <svg
    width="24"
    height="24"
    viewBox="0 0 24 24"
    fill="none"
    xmlns="http://www.w3.org/2000/svg"
    className="Hawkins-Icon Hawkins-Icon-Standard"
    >
    <path
        fillRule="evenodd"
        clipRule="evenodd"
        d="M14.0302 23C15.1182 23 16.0003 22.1179 16.0003 21.0299V18.2361L18.198 13.8407L21.275 12.9615C21.7043 12.8389 22.0003 12.4465 22.0003 12V5C22.0003 4.55352 21.7043 4.16113 21.275 4.03848L17.8242 3.05253L17.1598 2.78676C15.8604 2.26703 14.4739 2 13.0745 2H7.29168C5.48788 2 3.90724 3.20728 3.43263 4.94753L2.06899 9.94753C1.37502 12.4921 3.29055 15 5.92805 15H9.71952L9.27269 16.7873C9.07364 17.5835 9.07364 18.4165 9.27269 19.2127L9.2953 19.3031C9.83847 21.4758 11.7906 23 14.0302 23ZM14.2114 17.3416C14.0726 17.6194 14.0003 17.9256 14.0003 18.2361V20.9998C12.691 20.9864 11.5538 20.0907 11.2356 18.8181L11.213 18.7276C11.0935 18.2499 11.0935 17.7501 11.213 17.2724L11.9704 14.2425L12.2811 13H11.0003H5.92805C4.6093 13 3.65153 11.746 3.99852 10.4738L5.36215 5.47376C5.59946 4.60364 6.38978 4 7.29168 4H13.0745C14.2194 4 15.3539 4.21848 16.417 4.64371L17.1289 4.92848C17.1605 4.94113 17.1928 4.95216 17.2256 4.96152L20.0003 5.7543V11.2457L17.6485 11.9176C17.1095 12.0716 16.6599 12.4448 16.4091 12.9462L14.2114 17.3416Z"
        fill="currentColor"
    ></path>
</svg>